<svg xmlns="http://www.w3.org/2000/svg" width="140" height="140" viewBox="0 0 70 70">
  <defs>
    <style>
      .cls-1 {
        fill: #1f1f1f;
        fill-rule: evenodd;
      }
    </style>
  </defs>
  <path id="Logo" class="cls-1" d="M287.322,88.434a16.747,16.747,0,1,1,16.036-11.88q-0.066.217-.138,0.431l-0.118.357-0.31.212a15.694,15.694,0,0,1-24.569-12.99,15.793,15.793,0,0,1,.74-4.778,14.53,14.53,0,1,0,18.276,22.5l1.522,1.631A16.7,16.7,0,0,1,287.322,88.434Zm-5.23-30.326a13.515,13.515,0,0,0,11.864,19.966,13.36,13.36,0,0,0,7.264-2.153,0.106,0.106,0,0,1,0-.017A14.533,14.533,0,0,0,282.092,58.108ZM318.638,82.95a30.121,30.121,0,0,0-40.61-44.323l1.395,1.739a27.581,27.581,0,0,1,17.458-6.139,27.9,27.9,0,0,1,20.144,47.179l0.035,0.031-1.6,1.548a30.349,30.349,0,1,0-6.923,10.352l-1.565-1.6a28.064,28.064,0,1,1,2.951-3.392l-0.008.013-0.439.422,1.551,1.6L318.647,83Z" transform="translate(-257 -32)"/>
</svg>
